<svg id="Layer_1" data-name="Layer 1" xmlns="http://www.w3.org/2000/svg" viewBox="0 0 294.28 458.42"><defs><style>.cls-1{fill:#010101;}.cls-2{fill:#cd1d1d;}.cls-3{fill:#fff;}.cls-4{fill:#e52621;}</style></defs><title>Artboard 1</title><path class="cls-1" d="M57,162.22c0,1.32-.59,1.91-1.94,1.91H20.16c-1.35,0-1.94-.59-1.94-1.91V138.51c0-1.33.59-1.91,1.94-1.91h6.4c1.35,0,1.94.58,1.94,1.91v13.56h5.6v-9.25c0-1.33.59-1.92,1.94-1.92H42.5c1.34,0,1.94.59,1.94,1.92v9.25H55c1.35,0,1.94.58,1.94,1.91Z"/><path class="cls-1" d="M58.27,126.7l-2.05,7.54a1.65,1.65,0,0,1-2.37,1.33l-13.72-3.72c-2.07-.56-4.5-1.88-7.76-4.25l-10.59-7.66a2.51,2.51,0,0,1-1-3.09l3.75-13.79a2.48,2.48,0,0,1,2.41-2.1l13-1.26c4-.4,6.78-.31,8.86.25l13.72,3.73A1.66,1.66,0,0,1,63.89,106l-2.11,7.74c-.37,1.39-1.11,1.85-2.41,1.5l-7.28-2-2.46,9.08,7.27,2A1.67,1.67,0,0,1,58.27,126.7Zm-18-7.41,2.19-8.05-8.55.27c-.7.08-1,.32-1.15.73l-.35,1.28c-.11.41.07.79.62,1.22Z"/><path class="cls-1" d="M67.1,99.78a1.66,1.66,0,0,1-2.71.31L37,78.49a1.66,1.66,0,0,1-.34-2.7l3.42-4.34a3.59,3.59,0,0,1,3.09-1.56l15.77-.7-9-7.1a1.67,1.67,0,0,1-.34-2.71l4.94-6.26a1.65,1.65,0,0,1,2.7-.3l27.4,21.59A1.67,1.67,0,0,1,85,77.12L80,83.38a1.66,1.66,0,0,1-2.7.3l-5.2-4.1-14.38.24,13.95,11a1.66,1.66,0,0,1,.34,2.7Z"/><path class="cls-1" d="M100.29,67c-7.79,4.36-13.11,3.34-16.77-3.19L75.3,49.19c-3.66-6.53-1.76-11.61,6-16l11.59-6.5a1.66,1.66,0,0,1,2.62.76l3.18,5.68A1.66,1.66,0,0,1,98,35.77l-9.64,5.41c-2,1.09-2.41,2.34-1.51,3.93l6.29,11.23c.9,1.59,2,1.91,3.43,1.1l4.49-2.52L97,47.59A1.66,1.66,0,0,1,97.67,45l7.19-4a1.67,1.67,0,0,1,2.62.75l8.13,14.51a1.66,1.66,0,0,1-.72,2.63Z"/><path class="cls-1" d="M121,57.4c-1.31.2-2-.31-2.17-1.64l-.91-6.23a1.66,1.66,0,0,1,1.61-2.2l14.14-2.07a1.38,1.38,0,0,0,1.14-1.74c-.18-1.23-.72-1.64-1.63-1.61l-8.05,0c-5,0-8.57-1.68-9.45-7.64l-.82-5.6c-.89-6.07,2.67-10,9.51-11l14.72-2.16a1.67,1.67,0,0,1,2.18,1.64l.93,6.34c.19,1.33-.3,2-1.61,2.2L128.3,27.54a1.43,1.43,0,0,0-1.18,1.81,1.58,1.58,0,0,0,1.67,1.5l8-.09c5.05,0,8.62,1.68,9.5,7.64l.82,5.6c.89,6.07-2.73,10-9.51,11Z"/><path class="cls-1" d="M170.37,57.16l-7.4-2.5a1.65,1.65,0,0,1-1.19-2.44l4.55-13.47c.69-2,2.15-4.38,4.72-7.49l8.29-10.1a2.5,2.5,0,0,1,3.14-.81L196,24.92A2.48,2.48,0,0,1,198,27.46l.47,13c.15,4-.1,6.79-.79,8.83L193.1,62.8A1.66,1.66,0,0,1,190.67,64l-7.61-2.57c-1.36-.46-1.77-1.22-1.34-2.5l2.41-7.14-8.91-3-2.41,7.14A1.66,1.66,0,0,1,170.37,57.16Zm8.49-17.47,7.9,2.67.25-8.55c0-.7-.26-1.05-.66-1.19l-1.26-.42c-.4-.14-.79,0-1.25.54Z"/><path class="cls-1" d="M205.43,73.89a1.67,1.67,0,0,1,.14-2.72L231.3,47.62a1.66,1.66,0,0,1,2.72.1l5.56,6.07a1.66,1.66,0,0,1-.14,2.72l-19.65,18,4.92,5.37L231.14,74a1.66,1.66,0,0,1,2.72.1l5.2,5.68a1.66,1.66,0,0,1-.13,2.72L226.42,93.94a1.66,1.66,0,0,1-2.72-.1Z"/><path class="cls-1" d="M231.26,112.94c-4.61-12.46-1.6-17,4.56-19.31L253,87.25c6.16-2.28,11.48-.79,16.09,11.68s1.53,17-4.63,19.28l-17.22,6.38C241.12,126.87,235.87,125.41,231.26,112.94Zm9.75-3.6c1.34,3.64,2.56,3.81,3.92,3.31l13.58-5c1.31-.49,2.12-1.41.77-5.05s-2.55-3.81-3.87-3.33l-13.58,5C240.47,104.78,239.68,105.75,241,109.34Z"/><path class="cls-1" d="M237.48,141.19c0-1.33.59-1.92,1.94-1.92h26.43v-7.81c0-1.33.59-1.91,1.94-1.91h6.51c1.35,0,1.94.58,1.94,1.91v28.06c0,1.33-.59,1.91-1.94,1.91h-6.51c-1.35,0-1.94-.58-1.94-1.91v-7.81H239.42c-1.35,0-1.94-.59-1.94-1.91Z"/><path class="cls-1" d="M237.48,248.82c0-1.33.59-1.92,1.94-1.92h6.3c1.34,0,1.93.59,1.93,1.92v14.29a1.4,1.4,0,0,0,1.57,1.38c1.23,0,1.72-.48,1.83-1.38l1.13-8c.75-5,2.9-8.24,8.93-8.24h5.66c6.13,0,9.47,4.09,9.47,11v14.88c0,1.33-.59,1.92-1.94,1.92h-6.4c-1.35,0-1.94-.59-1.94-1.92V260.4a1.43,1.43,0,0,0-1.62-1.43,1.58,1.58,0,0,0-1.72,1.43l-1.08,7.92c-.75,5-2.9,8.29-8.93,8.29H247c-6.14,0-9.48-4.15-9.48-11Z"/><path class="cls-1" d="M237.48,284.31c0-1.33.59-1.91,1.94-1.91H274.3c1.35,0,1.94.58,1.94,1.91v5.53a3.6,3.6,0,0,1-1.45,3.13l-12,10.31H274.3c1.35,0,1.94.59,1.94,1.92v8c0,1.33-.59,1.91-1.94,1.91H239.42c-1.35,0-1.94-.58-1.94-1.91v-8c0-1.33.59-1.92,1.94-1.92H246l11.14-9.09H239.42c-1.35,0-1.94-.58-1.94-1.91Z"/><path class="cls-1" d="M236.65,329.18l1.82-7.6a1.66,1.66,0,0,1,2.33-1.41l13.82,3.31c2.09.5,4.56,1.75,7.89,4l10.81,7.35a2.49,2.49,0,0,1,1.09,3l-3.32,13.9a2.49,2.49,0,0,1-2.35,2.17l-13,1.65c-4,.52-6.77.51-8.86,0l-13.82-3.31a1.67,1.67,0,0,1-1.44-2.32l1.87-7.8c.33-1.4,1.06-1.88,2.37-1.56l7.33,1.75,2.18-9.15-7.32-1.75A1.66,1.66,0,0,1,236.65,329.18ZM254.82,336l-1.94,8.12,8.54-.52c.69-.11,1-.36,1.12-.77l.31-1.3c.1-.41-.09-.78-.65-1.19Z"/><path class="cls-1" d="M228.6,356.34a1.66,1.66,0,0,1,2.69-.39l28.06,20.73a1.66,1.66,0,0,1,.43,2.69l-4.9,6.63a1.65,1.65,0,0,1-2.69.38l-10-7.35L241,380.74l6.83,11.85a2.48,2.48,0,0,1-.15,3.2l-4.86,6.58c-.72,1-1.5.94-2.12-.11l-6.87-11.82c-2.54,3.08-6.31,3.47-9.77.91l-12.22-9a1.66,1.66,0,0,1-.42-2.69l4.86-6.58a1.67,1.67,0,0,1,2.7-.39l8.44,6.24a1.59,1.59,0,0,0,2.49-.28L234,373l-9.91-7.32a1.66,1.66,0,0,1-.42-2.69Z"/><path class="cls-1" d="M205.54,384.32a1.66,1.66,0,0,1,2.65.62l18.51,29.57a1.65,1.65,0,0,1-.59,2.65l-20.9,13.09a1.66,1.66,0,0,1-2.65-.63l-3.34-5.34a1.65,1.65,0,0,1,.59-2.65l12.43-7.79-2.2-3.51-8.78,5.5a1.66,1.66,0,0,1-2.65-.63l-3.06-4.88a1.67,1.67,0,0,1,.6-2.66l8.78-5.5-2.46-3.92L190,406a1.66,1.66,0,0,1-2.65-.62l-3.34-5.34a1.66,1.66,0,0,1,.59-2.66Z"/><path class="cls-1" d="M178.18,399.77a1.67,1.67,0,0,1,2.24,1.56l6.4,34.29a1.67,1.67,0,0,1-1.52,2.26L168.63,441c-6.84,1.28-10.5-.66-11.54-6.22l-.48-2.54c-.55-3,.1-5,2-6.29-4.57.42-7.15-1.79-8.12-7l-.91-4.87c-1.1-5.93,1.57-9.28,8.52-10.58ZM170,410.62l-6.79,1.27c-1.36.25-1.85,1.05-1.59,2.48l.39,2.07c.27,1.43,1,1.94,2.37,1.69l6.79-1.27ZM172.67,425l-4.44.83c-1.35.25-1.85,1.06-1.58,2.49l.27,1.48c.27,1.43,1,2,2.38,1.75l4.44-.83Z"/><path class="cls-1" d="M145.54,406.75l-1,6.33c-.21,1.33-.88,1.83-2.19,1.62l-5.2-.8-2.77,17.87,5.2.8a1.66,1.66,0,0,1,1.59,2.21l-1,6.44c-.21,1.33-.87,1.83-2.19,1.62l-22.37-3.47a1.66,1.66,0,0,1-1.59-2.21l1-6.43c.21-1.33.88-1.83,2.19-1.63l5.1.79L125.09,412l-5.09-.79c-1.32-.2-1.8-.88-1.6-2.21l1-6.33a1.67,1.67,0,0,1,2.19-1.62L144,404.54A1.66,1.66,0,0,1,145.54,406.75Z"/><path class="cls-1" d="M107.78,395.56a1.66,1.66,0,0,1,.77,2.61L96,421.45l6.88,3.7a1.67,1.67,0,0,1,.77,2.62l-3.08,5.73a1.67,1.67,0,0,1-2.61.8L73.27,421a1.66,1.66,0,0,1-.76-2.61l3.08-5.74a1.67,1.67,0,0,1,2.61-.8l6.88,3.7L97.6,392.28a1.66,1.66,0,0,1,2.6-.8Z"/><path class="cls-1" d="M87.19,382.85a1.66,1.66,0,0,1-.18,2.72L60.91,408.7a1.66,1.66,0,0,1-2.72-.14L41.83,390.11a1.66,1.66,0,0,1,.18-2.72l4.71-4.18a1.66,1.66,0,0,1,2.72.15l9.73,11,3.1-2.75-6.87-7.75a1.66,1.66,0,0,1,.18-2.72l4.31-3.82a1.66,1.66,0,0,1,2.72.15l6.88,7.75L73,382.12l-9.73-11a1.66,1.66,0,0,1,.18-2.72l4.71-4.18a1.66,1.66,0,0,1,2.72.15Z"/><path class="cls-1" d="M62.42,348.69A1.67,1.67,0,0,1,61,351l-34,7.95a1.66,1.66,0,0,1-2.32-1.42L20.82,341c-1.59-6.78.19-10.52,5.69-11.81l2.52-.59c2.93-.69,5-.13,6.37,1.73-.62-4.55,1.47-7.22,6.6-8.42l4.83-1.13c5.87-1.37,9.33,1.14,10.94,8ZM37,344.33l-1-4.4c-.31-1.35-1.14-1.81-2.55-1.48l-1.47.35c-1.42.33-1.95,1.11-1.64,2.45l1,4.4ZM51.22,341l-1.58-6.73c-.31-1.34-1.14-1.8-2.55-1.47l-2.05.48c-1.41.33-1.89,1.1-1.58,2.44L45,342.44Z"/><path class="cls-1" d="M57,305.78v7.81c0,1.33-.59,1.91-1.94,1.91H40.83c-2.15,0-4.84-.64-8.61-2.07L20,308.81a2.51,2.51,0,0,1-1.78-2.71V291.8A2.48,2.48,0,0,1,20,289.14l12.22-4.62c3.77-1.44,6.46-2.08,8.61-2.08H55c1.35,0,1.94.59,1.94,1.92v8c0,1.44-.59,2.08-1.94,2.08H47.51v9.4H55C56.39,303.86,57,304.45,57,305.78Zm-19.27-2.45V295l-8.18,2.49c-.65.27-.92.59-.92,1v1.33c0,.43.27.75.92,1Z"/><path class="cls-1" d="M57,274c0,1.33-.59,1.92-1.94,1.92H20.16c-1.35,0-1.94-.59-1.94-1.92v-17.7c0-8,3.66-10.47,9-10.47h2.48c3,0,5.17.75,6.13,3,.43-3.88,3.29-6.43,7.81-6.43H55c1.35,0,1.94.58,1.94,1.91v8.24c0,1.33-.59,1.91-1.94,1.91H46.81c-1.62,0-2.32.54-2.32,2v7.44H55c1.35,0,1.94.59,1.94,1.92ZM34.8,263.87v-4c0-1.86-1.08-2.34-2.53-2.34H30.44c-1.45,0-2.53.48-2.53,2.34v4Z"/><path class="cls-1" d="M91,207.7H88v-7.82a7.49,7.49,0,0,1,7.48-7.48h.69a4.48,4.48,0,0,0,0-9h-.46A7.49,7.49,0,0,1,88.23,176v-7.13h3V176a4.49,4.49,0,0,0,4.48,4.48h.46a7.48,7.48,0,1,1,0,15h-.69A4.49,4.49,0,0,0,91,199.88Z"/><path class="cls-2" d="M70,149.51A77.43,77.43,0,0,1,85.5,101.29a79.24,79.24,0,0,1,18.64-17.85,77.86,77.86,0,0,1,36.51-13.31l3.26-.27,3.28-.12c2.16,0,4.38,0,6.63.17a70.92,70.92,0,0,1,26.36,7A72.3,72.3,0,0,1,202,93.39a74.71,74.71,0,0,1,19,49.7,73,73,0,0,1-5.19,26.83,75.73,75.73,0,0,1-6.21,12.13c-.61.94-1.22,1.89-1.87,2.8l-.94,1.33-.7,1L203.37,191l-11.24,15.35c-15,20.49-30.08,40.86-45.17,61.25L124.2,298.08a31.48,31.48,0,0,0-5.11,10,29.48,29.48,0,0,0-1.13,11.1A32,32,0,0,0,121,330.27a32.65,32.65,0,0,0,6.78,9.33,29,29,0,0,0,9.54,6.08,29.64,29.64,0,0,0,5.59,1.58,32.62,32.62,0,0,0,6.13.53,39.51,39.51,0,0,0,24-8.09,40.68,40.68,0,0,0,14.56-21.63c.16-.53.31-1.07.42-1.61s.29-1.09.36-1.64l.33-1.65.25-1.68c.09-.56.12-1.12.2-1.69l.05-.42,0-.22,0-.1c0-.08,0,0,0,.05s0-.07,0-.18l0-.34c.07-1,.1-2.25.09-3.45A88.28,88.28,0,0,0,188,290c-1.86-10.17-5.69-20.12-14-30.93l0,0a2,2,0,0,1,1.69-3.29,40.41,40.41,0,0,1,20.79,7.06,54.59,54.59,0,0,1,15.88,16.63,64.24,64.24,0,0,1,5.24,10.33A69.25,69.25,0,0,1,221,300.87c.4,1.94.76,3.85,1,6l.09.84c0,.29,0,.6.07,1l0,1.69c0,1,.08,2,0,3.06a66.36,66.36,0,0,1-1.35,12.22,74.7,74.7,0,0,1-8.92,23,76.17,76.17,0,0,1-37.19,31.88,74.76,74.76,0,0,1-24.58,5.33,70.23,70.23,0,0,1-25.7-3.4,68.55,68.55,0,0,1-23.08-13A72.12,72.12,0,0,1,77,323.88a71.25,71.25,0,0,1,1.58-26.63A72.16,72.16,0,0,1,89.77,273.1L111.7,242c14.71-20.67,29.39-41.35,44.23-61.93L167,164.63l2.8-3.85.69-1,.43-.62c.28-.38.51-.77.77-1.15a30.5,30.5,0,0,0,2.45-4.79,28.23,28.23,0,0,0,2-10.29,29.8,29.8,0,0,0-1.88-10.59,29.14,29.14,0,0,0-13.71-15.76,27.44,27.44,0,0,0-4.85-1.9,28.15,28.15,0,0,0-5.29-1c-.9-.09-1.86-.14-2.86-.14h-1.48l-1.48.09a38.24,38.24,0,0,0-5.82.89,37.32,37.32,0,0,0-20,12.53,45.59,45.59,0,0,0-3.53,5,38.47,38.47,0,0,0-2.66,5.48,39.45,39.45,0,0,0-2.57,12l0,.75A20,20,0,0,1,70,149.51Z"/><circle class="cls-3" cx="80.62" cy="146.02" r="6.3"/><ellipse class="cls-1" cx="80.62" cy="146.02" rx="1.57" ry="6.3"/><circle class="cls-3" cx="99.52" cy="146.02" r="6.3"/><ellipse class="cls-1" cx="99.52" cy="146.02" rx="1.58" ry="6.3"/><path class="cls-1" d="M95.25,214.49a1.48,1.48,0,0,1-1.06-.44l-4.69-4.69-4.69,4.69a1.5,1.5,0,0,1-2.12-2.12l6.81-6.81,6.81,6.81a1.49,1.49,0,0,1,0,2.12A1.45,1.45,0,0,1,95.25,214.49Z"/><circle class="cls-4" cx="243.39" cy="204.96" r="6.41"/><circle class="cls-4" cx="268.24" cy="204.96" r="6.41"/><circle class="cls-4" cx="24.44" cy="204.84" r="6.41"/><circle class="cls-4" cx="49.29" cy="204.84" r="6.41"/></svg>